G75*
G70*
%OFA0B0*%
%FSLAX24Y24*%
%IPPOS*%
%LPD*%
%AMOC8*
5,1,8,0,0,1.08239X$1,22.5*
%
%ADD10R,0.0800X0.0260*%
%ADD11C,0.0630*%
%ADD12R,0.0394X0.0433*%
%ADD13R,0.0433X0.0394*%
%ADD14R,0.0630X0.0630*%
%ADD15OC8,0.0630*%
%ADD16C,0.0118*%
%ADD17C,0.0394*%
%ADD18C,0.0197*%
D10*
X009390Y006700D03*
X009390Y007200D03*
X009390Y007700D03*
X009390Y008200D03*
X009390Y008700D03*
X009390Y009200D03*
X009390Y009700D03*
X011810Y009700D03*
X011810Y009200D03*
X011810Y008700D03*
X011810Y008200D03*
X011810Y007700D03*
X011810Y007200D03*
X011810Y006700D03*
D11*
X011350Y004765D02*
X011350Y004135D01*
X010350Y004135D02*
X010350Y004765D01*
X009350Y004765D02*
X009350Y004135D01*
X008350Y004135D02*
X008350Y004765D01*
X006480Y005950D02*
X005850Y005950D01*
X005850Y006950D02*
X006480Y006950D01*
X007285Y006950D02*
X007915Y006950D01*
X007915Y007950D02*
X007285Y007950D01*
X006480Y007950D02*
X005850Y007950D01*
X005850Y008950D02*
X006480Y008950D01*
X006480Y010450D02*
X005850Y010450D01*
X005850Y011450D02*
X006480Y011450D01*
X007285Y011450D02*
X007915Y011450D01*
X007915Y012450D02*
X007285Y012450D01*
X006480Y012450D02*
X005850Y012450D01*
X005850Y013450D02*
X006480Y013450D01*
X008850Y013765D02*
X008850Y013135D01*
X009850Y013135D02*
X009850Y013765D01*
X010850Y013765D02*
X010850Y013135D01*
X011850Y013135D02*
X011850Y013765D01*
X002850Y013450D02*
X002220Y013450D01*
X001415Y013450D02*
X000785Y013450D01*
X000785Y012450D02*
X001415Y012450D01*
X002220Y012450D02*
X002850Y012450D01*
X002850Y011450D02*
X002220Y011450D01*
X002220Y010450D02*
X002850Y010450D01*
X002850Y008950D02*
X002220Y008950D01*
X001415Y008950D02*
X000785Y008950D01*
X000785Y007950D02*
X001415Y007950D01*
X002220Y007950D02*
X002850Y007950D01*
X002850Y006950D02*
X002220Y006950D01*
X002220Y005950D02*
X002850Y005950D01*
X001415Y005200D02*
X000785Y005200D01*
X000785Y004200D02*
X001415Y004200D01*
X001415Y003200D02*
X000785Y003200D01*
X001100Y002265D02*
X001100Y001635D01*
X002100Y001635D02*
X002100Y002265D01*
X003100Y002265D02*
X003100Y001635D01*
X004100Y001635D02*
X004100Y002265D01*
X005535Y003950D02*
X006165Y003950D01*
X006165Y004950D02*
X005535Y004950D01*
D12*
X004435Y003700D03*
X003765Y003700D03*
X005015Y002200D03*
X005685Y002200D03*
X005685Y001450D03*
X005015Y001450D03*
X007265Y005950D03*
X007935Y005950D03*
X007935Y008950D03*
X007265Y008950D03*
X007265Y010450D03*
X007935Y010450D03*
X007935Y013450D03*
X007265Y013450D03*
X011100Y012285D03*
X011100Y011615D03*
X011265Y005700D03*
X011935Y005700D03*
X001435Y006950D03*
X000765Y006950D03*
X000765Y011450D03*
X001435Y011450D03*
D13*
X002350Y005035D03*
X002350Y004365D03*
X002350Y003785D03*
X002350Y003115D03*
X003265Y004450D03*
X003935Y004450D03*
X005015Y002950D03*
X005685Y002950D03*
X009600Y011615D03*
X009600Y012285D03*
X010350Y012285D03*
X010350Y011615D03*
D14*
X013100Y013450D03*
X006600Y001450D03*
D15*
X007600Y001450D03*
X007600Y002450D03*
X006600Y002450D03*
X008600Y002450D03*
X009600Y002450D03*
X009600Y001450D03*
X008600Y001450D03*
X010600Y001450D03*
X011600Y001450D03*
X011600Y002450D03*
X010600Y002450D03*
X013100Y002450D03*
X014100Y002450D03*
X014100Y001450D03*
X013100Y001450D03*
X013100Y003450D03*
X014100Y003450D03*
X014100Y004450D03*
X014100Y005450D03*
X013100Y005450D03*
X013100Y004450D03*
X013100Y006450D03*
X014100Y006450D03*
X014100Y007450D03*
X013100Y007450D03*
X013100Y008450D03*
X013100Y009450D03*
X014100Y009450D03*
X014100Y008450D03*
X014100Y010450D03*
X013100Y010450D03*
X013100Y011450D03*
X014100Y011450D03*
X014100Y012450D03*
X014100Y013450D03*
X013100Y012450D03*
D16*
X001350Y000950D02*
X001100Y001200D01*
X001100Y001950D01*
X002100Y001950D02*
X002100Y002700D01*
X002225Y002825D01*
X002225Y002950D01*
X002350Y003115D01*
X002350Y003075D01*
X002350Y003115D02*
X002350Y003200D01*
X003350Y003200D01*
X003975Y003200D01*
X004225Y002950D01*
X005015Y002950D01*
X005685Y002950D02*
X006725Y002950D01*
X007100Y003325D01*
X009475Y003325D01*
X009850Y003700D01*
X009850Y005950D01*
X011100Y007200D01*
X011810Y007200D01*
X011810Y006700D02*
X012350Y006700D01*
X013100Y007450D01*
X013600Y007950D02*
X014100Y007450D01*
X013600Y007950D02*
X013600Y008950D01*
X013100Y009450D01*
X012600Y008950D02*
X012600Y009950D01*
X013100Y010450D01*
X013600Y010950D02*
X014100Y010450D01*
X013600Y010950D02*
X012100Y010950D01*
X010600Y009450D01*
X010600Y008950D01*
X010350Y008700D01*
X009390Y008700D01*
X009390Y008200D02*
X009390Y007700D01*
X009390Y007200D02*
X010100Y007200D01*
X009390Y006700D02*
X009350Y006660D01*
X009350Y006200D01*
X009100Y005950D01*
X007935Y005950D01*
X007850Y005865D01*
X007850Y005575D01*
X007600Y005325D01*
X007100Y005325D01*
X006600Y005825D01*
X005975Y005825D01*
X005850Y005950D01*
X004850Y005950D01*
X004600Y006200D01*
X004600Y010200D01*
X004850Y010450D01*
X005850Y010450D01*
X006100Y010450D01*
X006100Y010075D01*
X006350Y009825D01*
X007725Y009825D01*
X007935Y010035D01*
X007935Y010450D01*
X007265Y010450D02*
X007265Y010785D01*
X007100Y010950D01*
X005100Y010950D01*
X004850Y011200D01*
X004850Y012200D01*
X005100Y012450D01*
X005850Y012450D01*
X007600Y012450D02*
X007725Y012450D01*
X007850Y012575D01*
X007850Y013365D01*
X007935Y013450D01*
X008350Y012700D02*
X008600Y012450D01*
X008600Y011825D01*
X008725Y011700D01*
X009100Y011700D01*
X009515Y011700D01*
X009600Y011615D01*
X009600Y012285D02*
X009560Y012325D01*
X009100Y012325D01*
X008850Y012575D01*
X008850Y013450D01*
X008350Y012700D02*
X008350Y014325D01*
X009850Y013450D02*
X010850Y013450D01*
X010850Y012535D01*
X011100Y012285D01*
X011935Y012285D01*
X012600Y012950D01*
X013350Y012950D01*
X013600Y012700D01*
X013600Y011950D01*
X014100Y011450D01*
X014600Y011950D02*
X014100Y012450D01*
X014100Y013450D01*
X013100Y012450D02*
X012600Y011950D01*
X012100Y011950D01*
X010475Y010325D01*
X009975Y010325D01*
X009475Y010825D01*
X009100Y010825D01*
X008475Y011450D01*
X007600Y011450D01*
X009350Y010200D02*
X009350Y009700D01*
X009390Y009700D01*
X009390Y009200D02*
X010100Y009200D01*
X010350Y009450D01*
X010350Y009700D01*
X012100Y011450D01*
X013100Y011450D01*
X012100Y010200D02*
X012100Y009700D01*
X011810Y009700D01*
X011850Y009740D01*
X011810Y009200D02*
X011100Y009200D01*
X011810Y008700D02*
X012350Y008700D01*
X012600Y008950D01*
X013100Y008450D02*
X012350Y007700D01*
X011810Y007700D01*
X011810Y008200D02*
X010850Y008200D01*
X013100Y006450D02*
X012350Y005700D01*
X011935Y005700D01*
X011265Y005700D02*
X010725Y005700D01*
X010350Y005325D01*
X010350Y004450D01*
X010350Y003450D02*
X012100Y003450D01*
X012350Y003700D01*
X012350Y004450D01*
X012850Y004950D01*
X013350Y004950D01*
X013600Y005200D01*
X013600Y005950D01*
X014100Y006450D01*
X013100Y004450D02*
X012600Y003950D01*
X012600Y003450D01*
X012350Y003200D01*
X010600Y003200D01*
X010100Y002700D01*
X010100Y002200D01*
X009850Y001950D01*
X008100Y001950D01*
X007600Y001450D01*
X007350Y000950D02*
X010100Y000950D01*
X010350Y000700D01*
X014100Y000700D01*
X014600Y001200D01*
X014600Y011950D01*
X011100Y011615D02*
X010350Y011615D01*
X010350Y010825D01*
X010350Y012285D02*
X009600Y012285D01*
X007935Y008950D02*
X007850Y008950D01*
X007850Y007950D01*
X007600Y007950D01*
X007100Y006450D02*
X005100Y006450D01*
X004850Y006700D01*
X004850Y007700D01*
X005100Y007950D01*
X005850Y007950D01*
X007100Y006450D02*
X007265Y006285D01*
X007265Y005950D01*
X007935Y005950D02*
X007935Y005910D01*
X008350Y004450D02*
X007475Y004450D01*
X006475Y005450D01*
X003975Y005450D01*
X003975Y004950D01*
X004350Y004950D01*
X004600Y004700D01*
X003975Y004575D02*
X003850Y004450D01*
X003850Y003825D01*
X003765Y003740D01*
X003765Y003700D01*
X003765Y003825D01*
X003850Y003825D01*
X004435Y003700D02*
X004850Y003700D01*
X005100Y003950D01*
X005850Y003950D01*
X005685Y002950D02*
X005685Y002200D01*
X005015Y002200D02*
X005015Y001450D01*
X005100Y001365D01*
X005100Y001075D01*
X004975Y000950D01*
X001350Y000950D01*
X002100Y001950D02*
X003100Y001950D01*
X003350Y003200D02*
X003350Y004365D01*
X003265Y004450D01*
X003225Y004490D01*
X003225Y004825D01*
X003350Y004950D01*
X003600Y004950D01*
X003975Y004950D02*
X003975Y004575D01*
X003975Y004490D01*
X003935Y004450D01*
X003850Y004450D01*
X002975Y003825D02*
X002350Y003825D01*
X002350Y003785D01*
X002350Y004365D01*
X001850Y004700D02*
X001850Y004950D01*
X001935Y005035D01*
X002350Y005035D01*
X002350Y003200D02*
X001100Y003200D01*
X000765Y006950D02*
X000765Y007865D01*
X000850Y007950D01*
X001100Y007950D01*
X001100Y008950D02*
X001350Y008950D01*
X002350Y007950D01*
X002850Y007950D01*
X002850Y006950D02*
X001435Y006950D01*
X001435Y011450D02*
X002850Y011450D01*
X002850Y012450D02*
X002350Y012450D01*
X001350Y013450D01*
X001100Y013450D01*
X001100Y012450D02*
X000850Y012450D01*
X000765Y012365D01*
X000765Y011450D01*
X008100Y002950D02*
X009850Y002950D01*
X010350Y003450D01*
X011100Y002950D02*
X013600Y002950D01*
X014100Y002450D01*
X014100Y001450D02*
X013600Y000950D01*
X011100Y000950D01*
X010600Y001450D01*
X011600Y001450D02*
X011600Y002450D01*
X011100Y002950D02*
X010600Y002450D01*
X011600Y001450D02*
X013100Y001450D01*
X008100Y002950D02*
X007600Y002450D01*
X007100Y001950D02*
X007100Y001200D01*
X007350Y000950D01*
X006600Y001450D02*
X005685Y001450D01*
X006600Y002450D02*
X007100Y001950D01*
D17*
X004600Y004700D03*
X003600Y004950D03*
X002975Y003825D03*
X001850Y004700D03*
X003975Y006450D03*
X009350Y010200D03*
X010350Y010825D03*
X009100Y011700D03*
X011100Y009200D03*
X012100Y010200D03*
X010850Y008200D03*
X010100Y007200D03*
D18*
X007265Y008950D02*
X005850Y008950D01*
X003975Y006450D02*
X003975Y005450D01*
X003350Y005450D01*
X002935Y005035D01*
X002350Y005035D01*
X005850Y013450D02*
X007265Y013450D01*
X007265Y013865D01*
X007725Y014325D01*
X008350Y014325D01*
X012725Y014325D01*
X013100Y013950D01*
X013100Y013450D01*
M02*
