G75*
G70*
%OFA0B0*%
%FSLAX24Y24*%
%IPPOS*%
%LPD*%
%AMOC8*
5,1,8,0,0,1.08239X$1,22.5*
%
%ADD10C,0.0630*%
%ADD11R,0.0236X0.0236*%
%ADD12R,0.0433X0.0394*%
%ADD13R,0.0394X0.0433*%
%ADD14R,0.0630X0.0630*%
%ADD15OC8,0.0630*%
%ADD16R,0.0472X0.0217*%
%ADD17C,0.0118*%
%ADD18C,0.0394*%
%ADD19C,0.0197*%
D10*
X001100Y001635D02*
X001100Y002265D01*
X000785Y003200D02*
X001415Y003200D01*
X002100Y002265D02*
X002100Y001635D01*
X003100Y001635D02*
X003100Y002265D01*
X004100Y002265D02*
X004100Y001635D01*
X005535Y003950D02*
X006165Y003950D01*
X006165Y004950D02*
X005535Y004950D01*
X005850Y005950D02*
X006480Y005950D01*
X006480Y006950D02*
X005850Y006950D01*
X005850Y007950D02*
X006480Y007950D01*
X007285Y007950D02*
X007915Y007950D01*
X007915Y006950D02*
X007285Y006950D01*
X006480Y008950D02*
X005850Y008950D01*
X005850Y010450D02*
X006480Y010450D01*
X006480Y011450D02*
X005850Y011450D01*
X005850Y012450D02*
X006480Y012450D01*
X007285Y012450D02*
X007915Y012450D01*
X008850Y013135D02*
X008850Y013765D01*
X009850Y013765D02*
X009850Y013135D01*
X010850Y013135D02*
X010850Y013765D01*
X011850Y013765D02*
X011850Y013135D01*
X007915Y011450D02*
X007285Y011450D01*
X006480Y013450D02*
X005850Y013450D01*
X002850Y013450D02*
X002220Y013450D01*
X001415Y013450D02*
X000785Y013450D01*
X000785Y012450D02*
X001415Y012450D01*
X002220Y012450D02*
X002850Y012450D01*
X002850Y011450D02*
X002220Y011450D01*
X002220Y010450D02*
X002850Y010450D01*
X002850Y008950D02*
X002220Y008950D01*
X001415Y008950D02*
X000785Y008950D01*
X000785Y007950D02*
X001415Y007950D01*
X002220Y007950D02*
X002850Y007950D01*
X002850Y006950D02*
X002220Y006950D01*
X002220Y005950D02*
X002850Y005950D01*
X001415Y005200D02*
X000785Y005200D01*
X000785Y004200D02*
X001415Y004200D01*
X008350Y004135D02*
X008350Y004765D01*
X009350Y004765D02*
X009350Y004135D01*
X010350Y004135D02*
X010350Y004765D01*
X011350Y004765D02*
X011350Y004135D01*
D11*
X003850Y007017D03*
X003850Y007883D03*
X003850Y011517D03*
X003850Y012383D03*
D12*
X004850Y012615D03*
X004850Y013285D03*
X004850Y008785D03*
X004850Y008115D03*
X002350Y005035D03*
X002350Y004365D03*
X002350Y003785D03*
X002350Y003115D03*
X005015Y002950D03*
X005685Y002950D03*
X011515Y009700D03*
X012185Y009700D03*
X010350Y011615D03*
X010350Y012285D03*
X009600Y012285D03*
X009600Y011615D03*
D13*
X011100Y011615D03*
X011100Y012285D03*
X004850Y011285D03*
X004850Y010615D03*
X004850Y006785D03*
X004850Y006115D03*
X005015Y002200D03*
X005685Y002200D03*
X005685Y001450D03*
X005015Y001450D03*
X011265Y005700D03*
X011935Y005700D03*
D14*
X006600Y001450D03*
X013100Y013450D03*
D15*
X013100Y012450D03*
X014100Y012450D03*
X014100Y013450D03*
X014100Y011450D03*
X013100Y011450D03*
X013100Y010450D03*
X014100Y010450D03*
X014100Y009450D03*
X014100Y008450D03*
X013100Y008450D03*
X013100Y009450D03*
X013100Y007450D03*
X014100Y007450D03*
X014100Y006450D03*
X013100Y006450D03*
X013100Y005450D03*
X013100Y004450D03*
X014100Y004450D03*
X014100Y005450D03*
X014100Y003450D03*
X013100Y003450D03*
X013100Y002450D03*
X014100Y002450D03*
X014100Y001450D03*
X013100Y001450D03*
X011600Y001450D03*
X010600Y001450D03*
X010600Y002450D03*
X011600Y002450D03*
X009600Y002450D03*
X008600Y002450D03*
X008600Y001450D03*
X009600Y001450D03*
X007600Y001450D03*
X007600Y002450D03*
X006600Y002450D03*
D16*
X004112Y004326D03*
X004112Y005074D03*
X003088Y005074D03*
X003088Y004700D03*
X003088Y004326D03*
D17*
X002975Y004326D01*
X002975Y003825D01*
X002350Y003785D02*
X002310Y003825D01*
X001725Y003825D01*
X001350Y004200D01*
X001100Y004200D01*
X001850Y004450D02*
X001975Y004325D01*
X002310Y004325D01*
X002350Y004365D01*
X001850Y004450D02*
X001850Y004700D01*
X002015Y005035D02*
X001850Y005200D01*
X001100Y005200D01*
X002015Y005035D02*
X002350Y005035D01*
X002389Y005074D01*
X003088Y005074D01*
X003088Y004700D02*
X003475Y004700D01*
X003600Y004825D01*
X003600Y004950D01*
X003600Y005700D01*
X003850Y005950D01*
X004685Y005950D01*
X004850Y006115D01*
X005015Y005950D01*
X005850Y005950D01*
X005850Y006950D02*
X005600Y006950D01*
X004850Y007700D01*
X004850Y008115D01*
X003850Y007883D02*
X003783Y007950D01*
X002850Y007950D01*
X003783Y006950D02*
X003850Y007017D01*
X003783Y006950D02*
X002850Y006950D01*
X004113Y005075D02*
X004112Y005074D01*
X004113Y005075D02*
X004850Y005075D01*
X004975Y004950D01*
X005850Y004950D01*
X005100Y004450D02*
X004350Y003700D01*
X003850Y003700D01*
X003265Y003115D01*
X002350Y003115D01*
X003100Y002200D02*
X003100Y001950D01*
X003100Y001200D01*
X003350Y000950D01*
X008100Y000950D01*
X008350Y000700D01*
X013100Y000700D01*
X013100Y001450D01*
X013350Y001950D02*
X012600Y001950D01*
X012350Y001700D01*
X012350Y001200D01*
X012100Y000950D01*
X009100Y000950D01*
X008600Y001450D01*
X008100Y002200D02*
X008100Y002700D01*
X008350Y002950D01*
X008600Y002950D01*
X008850Y003200D01*
X008350Y003700D01*
X008350Y004450D01*
X007600Y004825D02*
X007600Y003825D01*
X006725Y002950D01*
X005685Y002950D01*
X005685Y002200D01*
X005015Y002200D02*
X005015Y001450D01*
X005685Y001450D02*
X006600Y001450D01*
X007100Y001950D01*
X007850Y001950D01*
X008100Y002200D01*
X008600Y002450D02*
X009350Y003200D01*
X012100Y003200D01*
X012350Y003450D01*
X012350Y004450D01*
X012850Y004950D01*
X013600Y004950D01*
X014100Y005450D01*
X014350Y005950D02*
X014600Y006200D01*
X014600Y007950D01*
X014100Y008450D01*
X013600Y008950D02*
X014100Y009450D01*
X013600Y008950D02*
X011600Y008950D01*
X011350Y008700D01*
X010350Y008700D01*
X008600Y006950D01*
X007600Y006950D01*
X005850Y006950D01*
X007600Y004825D02*
X008975Y006200D01*
X010100Y006200D01*
X010600Y006700D01*
X010600Y007950D01*
X010850Y008200D01*
X011100Y009200D02*
X011100Y011615D01*
X010350Y011615D01*
X010350Y012285D02*
X010350Y014075D01*
X010600Y014325D01*
X011350Y014325D01*
X011850Y013825D01*
X011850Y013450D01*
X010850Y013450D02*
X010850Y012535D01*
X011100Y012285D01*
X010350Y012285D02*
X009600Y012285D01*
X009515Y011700D02*
X009100Y011700D01*
X009515Y011700D02*
X009600Y011615D01*
X009600Y010825D02*
X010350Y010825D01*
X009600Y010825D02*
X009350Y010575D01*
X009350Y010200D01*
X008600Y011200D02*
X008600Y011950D01*
X009850Y013200D01*
X009850Y013450D01*
X008600Y011200D02*
X007850Y010450D01*
X005850Y010450D01*
X005015Y010450D01*
X004850Y010615D01*
X005350Y011450D02*
X004850Y011950D01*
X004850Y012615D01*
X004850Y013285D02*
X004890Y013325D01*
X003850Y012383D02*
X003783Y012450D01*
X002850Y012450D01*
X002850Y011450D02*
X003783Y011450D01*
X003850Y011517D01*
X005350Y011450D02*
X005850Y011450D01*
X007600Y011450D01*
X011515Y009990D02*
X011515Y009700D01*
X011515Y009990D02*
X011725Y010200D01*
X012100Y010200D01*
X012850Y010950D01*
X013350Y010950D01*
X013600Y011200D01*
X013600Y012950D01*
X013100Y013450D01*
X014100Y011450D02*
X014600Y010950D01*
X014600Y010200D01*
X014350Y009950D01*
X013600Y009950D01*
X013100Y009450D01*
X012725Y009825D01*
X012350Y009825D01*
X012225Y009700D01*
X012185Y009700D01*
X010100Y007200D02*
X009475Y006575D01*
X008725Y006575D01*
X006600Y004450D01*
X005100Y004450D01*
X004600Y004450D02*
X004475Y004325D01*
X004113Y004325D01*
X004112Y004326D01*
X004600Y004450D02*
X004600Y004700D01*
X005015Y002950D02*
X003850Y002950D01*
X003100Y002200D01*
X004100Y001950D02*
X004350Y002200D01*
X005015Y002200D01*
X008850Y003200D02*
X009100Y003450D01*
X011850Y003450D01*
X012100Y003700D01*
X012100Y004450D01*
X012100Y005075D01*
X012475Y005450D01*
X013100Y005450D01*
X012600Y005950D02*
X012350Y005700D01*
X011935Y005700D01*
X011265Y005700D02*
X009725Y005700D01*
X009350Y005325D01*
X009350Y004450D01*
X010100Y002950D02*
X012350Y002950D01*
X012600Y003200D01*
X012600Y003700D01*
X012850Y003950D01*
X013600Y003950D01*
X014100Y003450D01*
X013600Y002950D02*
X013600Y002200D01*
X013350Y001950D01*
X013100Y002450D02*
X012350Y002450D01*
X011850Y001950D01*
X010100Y001950D01*
X009600Y001450D01*
X009600Y002450D02*
X010100Y002950D01*
X011350Y004450D02*
X012100Y004450D01*
X013100Y003450D02*
X013600Y002950D01*
X014600Y003950D02*
X014600Y001200D01*
X014100Y000700D01*
X013100Y000700D01*
X014600Y003950D02*
X014100Y004450D01*
X014350Y005950D02*
X012600Y005950D01*
D18*
X010850Y008200D03*
X011100Y009200D03*
X012100Y010200D03*
X010350Y010825D03*
X009350Y010200D03*
X009100Y011700D03*
X010100Y007200D03*
X004600Y004700D03*
X003600Y004950D03*
X002975Y003825D03*
X001850Y004700D03*
X003975Y006450D03*
D19*
X004015Y006450D01*
X004350Y006785D01*
X004850Y006785D01*
X004350Y006785D02*
X004350Y008825D01*
X004390Y008785D01*
X004850Y008785D01*
X004435Y008785D01*
X004350Y008825D02*
X004350Y009575D01*
X005225Y009575D01*
X005850Y008950D01*
X004350Y009575D02*
X004350Y011285D01*
X004850Y011285D01*
X004350Y011285D02*
X004350Y013325D01*
X004890Y013325D01*
X004350Y013325D02*
X004350Y013950D01*
X004600Y014200D01*
X005600Y014200D01*
X005850Y013950D01*
X005850Y013450D01*
M02*
