%
M48
M72
T01C0.0157
T02C0.0394
%
T01
X2975Y3825
X3600Y4950
X4600Y4700
X3975Y6450
X1850Y4700
X9100Y11700
X10350Y10825
X9350Y10200
X11100Y9200
X12100Y10200
X10850Y8200
X10100Y7200
T02
X1100Y1950
X2100Y1950
X3100Y1950
X4100Y1950
X5850Y3950
X5850Y4950
X5850Y5950
X5850Y6950
X5850Y7950
X5850Y8950
X5850Y10450
X5850Y11450
X5850Y12450
X5850Y13450
X7600Y12450
X7600Y11450
X8850Y13450
X9850Y13450
X10850Y13450
X11850Y13450
X13100Y13450
X13100Y12450
X14100Y12450
X14100Y13450
X14100Y11450
X13100Y11450
X13100Y10450
X14100Y10450
X14100Y9450
X14100Y8450
X13100Y8450
X13100Y9450
X13100Y7450
X14100Y7450
X14100Y6450
X13100Y6450
X13100Y5450
X13100Y4450
X14100Y4450
X14100Y5450
X14100Y3450
X13100Y3450
X13100Y2450
X14100Y2450
X14100Y1450
X13100Y1450
X11600Y1450
X10600Y1450
X10600Y2450
X11600Y2450
X9600Y2450
X8600Y2450
X8600Y1450
X9600Y1450
X7600Y1450
X6600Y1450
X6600Y2450
X7600Y2450
X8350Y4450
X9350Y4450
X10350Y4450
X11350Y4450
X7600Y6950
X7600Y7950
X2850Y7950
X2850Y6950
X2850Y5950
X1100Y5200
X1100Y4200
X1100Y3200
X1100Y7950
X1100Y8950
X2850Y8950
X2850Y10450
X2850Y11450
X2850Y12450
X2850Y13450
X1100Y13450
X1100Y12450
M30
