G75*
G70*
%OFA0B0*%
%FSLAX24Y24*%
%IPPOS*%
%LPD*%
%AMOC8*
5,1,8,0,0,1.08239X$1,22.5*
%
%ADD10C,0.0710*%
%ADD11R,0.0316X0.0316*%
%ADD12R,0.0513X0.0474*%
%ADD13R,0.0474X0.0513*%
%ADD14R,0.0710X0.0710*%
%ADD15OC8,0.0710*%
%ADD16R,0.0552X0.0297*%
D10*
X001100Y001635D02*
X001100Y002265D01*
X000785Y003200D02*
X001415Y003200D01*
X002100Y002265D02*
X002100Y001635D01*
X003100Y001635D02*
X003100Y002265D01*
X004100Y002265D02*
X004100Y001635D01*
X005535Y003950D02*
X006165Y003950D01*
X006165Y004950D02*
X005535Y004950D01*
X005850Y005950D02*
X006480Y005950D01*
X006480Y006950D02*
X005850Y006950D01*
X005850Y007950D02*
X006480Y007950D01*
X007285Y007950D02*
X007915Y007950D01*
X007915Y006950D02*
X007285Y006950D01*
X006480Y008950D02*
X005850Y008950D01*
X005850Y010450D02*
X006480Y010450D01*
X006480Y011450D02*
X005850Y011450D01*
X005850Y012450D02*
X006480Y012450D01*
X007285Y012450D02*
X007915Y012450D01*
X008850Y013135D02*
X008850Y013765D01*
X009850Y013765D02*
X009850Y013135D01*
X010850Y013135D02*
X010850Y013765D01*
X011850Y013765D02*
X011850Y013135D01*
X007915Y011450D02*
X007285Y011450D01*
X006480Y013450D02*
X005850Y013450D01*
X002850Y013450D02*
X002220Y013450D01*
X001415Y013450D02*
X000785Y013450D01*
X000785Y012450D02*
X001415Y012450D01*
X002220Y012450D02*
X002850Y012450D01*
X002850Y011450D02*
X002220Y011450D01*
X002220Y010450D02*
X002850Y010450D01*
X002850Y008950D02*
X002220Y008950D01*
X001415Y008950D02*
X000785Y008950D01*
X000785Y007950D02*
X001415Y007950D01*
X002220Y007950D02*
X002850Y007950D01*
X002850Y006950D02*
X002220Y006950D01*
X002220Y005950D02*
X002850Y005950D01*
X001415Y005200D02*
X000785Y005200D01*
X000785Y004200D02*
X001415Y004200D01*
X008350Y004135D02*
X008350Y004765D01*
X009350Y004765D02*
X009350Y004135D01*
X010350Y004135D02*
X010350Y004765D01*
X011350Y004765D02*
X011350Y004135D01*
D11*
X003850Y007017D03*
X003850Y007883D03*
X003850Y011517D03*
X003850Y012383D03*
D12*
X004850Y012615D03*
X004850Y013285D03*
X004850Y008785D03*
X004850Y008115D03*
X002350Y005035D03*
X002350Y004365D03*
X002350Y003785D03*
X002350Y003115D03*
X005015Y002950D03*
X005685Y002950D03*
X011515Y009700D03*
X012185Y009700D03*
X010350Y011615D03*
X010350Y012285D03*
X009600Y012285D03*
X009600Y011615D03*
D13*
X011100Y011615D03*
X011100Y012285D03*
X004850Y011285D03*
X004850Y010615D03*
X004850Y006785D03*
X004850Y006115D03*
X005015Y002200D03*
X005685Y002200D03*
X005685Y001450D03*
X005015Y001450D03*
X011265Y005700D03*
X011935Y005700D03*
D14*
X006600Y001450D03*
X013100Y013450D03*
D15*
X013100Y012450D03*
X014100Y012450D03*
X014100Y013450D03*
X014100Y011450D03*
X013100Y011450D03*
X013100Y010450D03*
X014100Y010450D03*
X014100Y009450D03*
X014100Y008450D03*
X013100Y008450D03*
X013100Y009450D03*
X013100Y007450D03*
X014100Y007450D03*
X014100Y006450D03*
X013100Y006450D03*
X013100Y005450D03*
X013100Y004450D03*
X014100Y004450D03*
X014100Y005450D03*
X014100Y003450D03*
X013100Y003450D03*
X013100Y002450D03*
X014100Y002450D03*
X014100Y001450D03*
X013100Y001450D03*
X011600Y001450D03*
X010600Y001450D03*
X010600Y002450D03*
X011600Y002450D03*
X009600Y002450D03*
X008600Y002450D03*
X008600Y001450D03*
X009600Y001450D03*
X007600Y001450D03*
X007600Y002450D03*
X006600Y002450D03*
D16*
X004112Y004326D03*
X004112Y005074D03*
X003088Y005074D03*
X003088Y004700D03*
X003088Y004326D03*
M02*
